# Blender 3.4.1
# www.blender.org
mtllib Table.mtl
o Kostka.001
v -0.733962 1.165613 0.733962
v -0.733962 1.197708 0.733962
v -0.733962 1.165613 -0.733962
v -0.733962 1.197708 -0.733962
v 0.733962 1.165613 0.733962
v 0.733962 1.197708 0.733962
v 0.733962 1.165613 -0.733962
v 0.733962 1.197708 -0.733962
v -0.750000 1.197902 0.750000
v -0.750000 1.227304 0.750000
v -0.750000 1.197902 -0.750000
v -0.750000 1.227304 -0.750000
v 0.750000 1.197902 0.750000
v 0.750000 1.227304 0.750000
v 0.750000 1.197902 -0.750000
v 0.750000 1.227304 -0.750000
v 0.699331 -0.001624 0.670977
v 0.699331 -0.001624 0.750149
v 0.699331 1.198376 0.670977
v 0.699331 1.198376 0.750150
v 0.750052 -0.001624 0.670977
v 0.750052 -0.001624 0.750149
v 0.750052 1.198376 0.670977
v 0.750052 1.198376 0.750150
v -0.699331 -0.001624 0.670977
v -0.699331 -0.001624 0.750149
v -0.699331 1.198376 0.670977
v -0.699331 1.198376 0.750150
v -0.750052 -0.001624 0.670977
v -0.750052 -0.001624 0.750149
v -0.750052 1.198376 0.670977
v -0.750052 1.198376 0.750150
v 0.699331 -0.001624 -0.670977
v 0.699331 -0.001624 -0.750149
v 0.699331 1.198376 -0.670977
v 0.699331 1.198376 -0.750149
v 0.750052 -0.001624 -0.670977
v 0.750052 -0.001624 -0.750149
v 0.750052 1.198376 -0.670977
v 0.750052 1.198376 -0.750149
v -0.699331 -0.001624 -0.670977
v -0.699331 -0.001624 -0.750149
v -0.699331 1.198376 -0.670977
v -0.699331 1.198376 -0.750149
v -0.750052 -0.001624 -0.670977
v -0.750052 -0.001624 -0.750149
v -0.750052 1.198376 -0.670977
v -0.750052 1.198376 -0.750149
vn -1.0000 -0.0000 -0.0000
vn -0.0000 -0.0000 -1.0000
vn 1.0000 -0.0000 -0.0000
vn -0.0000 -0.0000 1.0000
vn -0.0000 -1.0000 -0.0000
vn -0.0000 1.0000 -0.0000
vt 0.000000 0.000000
vt 0.000000 1.000000
vt 1.000000 0.000000
vt 1.000000 1.000000
vt 0.000000 1.000000
vt 0.000000 0.000000
vt 1.000000 1.000000
vt 1.000000 0.000000
vt 0.000000 1.000000
vt 0.000000 0.000000
vt 1.000000 1.000000
vt 1.000000 1.000000
vt 1.000000 0.000000
vt 0.000000 1.000000
vt 0.000000 1.000000
vt 0.000000 0.000000
vt 1.000000 0.000000
vt 1.000000 1.000000
vt 1.000000 0.000000
vt 0.000000 0.000000
vt 0.000000 0.000000
vt 0.000000 1.000000
vt 1.000000 0.000000
vt 1.000000 1.000000
vt 0.000000 1.000000
vt 0.000000 0.000000
vt 1.000000 1.000000
vt 1.000000 0.000000
vt 0.000000 1.000000
vt 0.000000 0.000000
vt 1.000000 1.000000
vt 1.000000 1.000000
vt 1.000000 0.000000
vt 0.000000 1.000000
vt 0.000000 1.000000
vt 0.000000 0.000000
vt 1.000000 0.000000
vt 1.000000 1.000000
vt 1.000000 0.000000
vt 0.000000 0.000000
vt 0.000000 0.000000
vt 0.000000 1.000000
vt 1.000000 0.000000
vt 1.000000 1.000000
vt 0.000000 1.000000
vt 0.000000 0.000000
vt 1.000000 1.000000
vt 1.000000 0.000000
vt 0.000000 1.000000
vt 0.000000 0.000000
vt 1.000000 1.000000
vt 1.000000 1.000000
vt 1.000000 0.000000
vt 0.000000 1.000000
vt 0.000000 1.000000
vt 0.000000 0.000000
vt 1.000000 0.000000
vt 1.000000 1.000000
vt 1.000000 0.000000
vt 0.000000 0.000000
vt 0.000000 0.000000
vt 0.000000 1.000000
vt 1.000000 0.000000
vt 1.000000 1.000000
vt 0.000000 1.000000
vt 0.000000 0.000000
vt 1.000000 1.000000
vt 1.000000 0.000000
vt 0.000000 1.000000
vt 0.000000 0.000000
vt 1.000000 1.000000
vt 1.000000 1.000000
vt 1.000000 0.000000
vt 0.000000 1.000000
vt 0.000000 1.000000
vt 0.000000 0.000000
vt 1.000000 0.000000
vt 1.000000 1.000000
vt 1.000000 0.000000
vt 0.000000 0.000000
vt 0.000000 0.000000
vt 0.000000 1.000000
vt 1.000000 0.000000
vt 1.000000 1.000000
vt 0.000000 1.000000
vt 0.000000 0.000000
vt 1.000000 1.000000
vt 1.000000 0.000000
vt 0.000000 1.000000
vt 0.000000 0.000000
vt 1.000000 1.000000
vt 1.000000 1.000000
vt 1.000000 0.000000
vt 0.000000 1.000000
vt 0.000000 1.000000
vt 0.000000 0.000000
vt 1.000000 0.000000
vt 1.000000 1.000000
vt 1.000000 0.000000
vt 0.000000 0.000000
vt 0.000000 0.000000
vt 0.000000 1.000000
vt 1.000000 0.000000
vt 1.000000 1.000000
vt 0.000000 1.000000
vt 0.000000 0.000000
vt 1.000000 1.000000
vt 1.000000 0.000000
vt 0.000000 1.000000
vt 0.000000 0.000000
vt 1.000000 1.000000
vt 1.000000 1.000000
vt 1.000000 0.000000
vt 0.000000 1.000000
vt 0.000000 1.000000
vt 0.000000 0.000000
vt 1.000000 0.000000
vt 1.000000 1.000000
vt 1.000000 0.000000
vt 0.000000 0.000000
s 0
usemtl Table
f 1/1/1 2/3/1 4/7/1 3/5/1
f 3/6/2 4/8/2 8/18/2 7/15/2
f 7/16/3 8/19/3 6/12/3 5/9/3
f 5/10/4 6/13/4 2/4/4 1/2/4
f 3/6/5 7/17/5 5/11/5 1/2/5
f 8/20/6 4/8/6 2/4/6 6/14/6
f 9/21/1 10/23/1 12/27/1 11/25/1
f 11/26/2 12/28/2 16/38/2 15/35/2
f 15/36/3 16/39/3 14/32/3 13/29/3
f 13/30/4 14/33/4 10/24/4 9/22/4
f 11/26/5 15/37/5 13/31/5 9/22/5
f 16/40/6 12/28/6 10/24/6 14/34/6
usemtl Legs
f 17/41/1 18/43/1 20/47/1 19/45/1
f 19/46/6 20/48/6 24/58/6 23/55/6
f 23/56/3 24/59/3 22/52/3 21/49/3
f 21/50/5 22/53/5 18/44/5 17/42/5
f 19/46/2 23/57/2 21/51/2 17/42/2
f 24/60/4 20/48/4 18/44/4 22/54/4
f 25/61/3 27/65/3 28/67/3 26/63/3
f 27/66/6 31/75/6 32/78/6 28/68/6
f 31/76/1 29/69/1 30/72/1 32/79/1
f 29/70/5 25/62/5 26/64/5 30/73/5
f 27/66/2 25/62/2 29/71/2 31/77/2
f 32/80/4 30/74/4 26/64/4 28/68/4
f 33/81/1 35/85/1 36/87/1 34/83/1
f 35/86/6 39/95/6 40/98/6 36/88/6
f 39/96/3 37/89/3 38/92/3 40/99/3
f 37/90/5 33/82/5 34/84/5 38/93/5
f 35/86/4 33/82/4 37/91/4 39/97/4
f 40/100/2 38/94/2 34/84/2 36/88/2
f 41/101/3 42/103/3 44/107/3 43/105/3
f 43/106/6 44/108/6 48/118/6 47/115/6
f 47/116/1 48/119/1 46/112/1 45/109/1
f 45/110/5 46/113/5 42/104/5 41/102/5
f 43/106/4 47/117/4 45/111/4 41/102/4
f 48/120/2 44/108/2 42/104/2 46/114/2
