# Blender 3.6.1
# www.blender.org
mtllib 3_section_rectangle.mtl
o Cube
v 1.000000 1.000000 -1.000000
v 1.000000 -1.000000 -1.000000
v 1.000000 1.000000 1.000000
v 1.000000 -1.000000 1.000000
v -1.000000 1.000000 -1.000000
v -1.000000 -1.000000 -1.000000
v -1.000000 1.000000 1.000000
v -1.000000 -1.000000 1.000000
v 3.000000 1.000000 -1.000000
v 3.000000 -1.000000 -1.000000
v 3.000000 1.000000 1.000000
v 3.000000 -1.000000 1.000000
v -3.000000 -1.000000 -1.000000
v -3.000000 -1.000000 1.000000
v -3.000000 1.000000 1.000000
v -3.000000 1.000000 -1.000000
vn -0.0000 1.0000 -0.0000
vn -0.0000 -0.0000 1.0000
vn -0.0000 -1.0000 -0.0000
vn -0.0000 -0.0000 -1.0000
vn 1.0000 -0.0000 -0.0000
vn -1.0000 -0.0000 -0.0000
vt 0.625000 0.500000
vt 0.875000 0.500000
vt 0.875000 0.750000
vt 0.625000 0.750000
vt 0.375000 0.750000
vt 0.625000 1.000000
vt 0.375000 1.000000
vt 0.125000 0.500000
vt 0.125000 0.750000
vt 0.375000 0.500000
vt 0.375000 0.250000
vt 0.625000 0.250000
vt 0.375000 0.000000
vt 0.625000 0.000000
s 0
usemtl Material
f 1/1/1 5/2/1 7/3/1 3/4/1
f 4/5/2 3/4/2 7/6/2 8/7/2
f 6/8/3 8/9/3 14/9/3 13/8/3
f 6/8/3 2/10/3 4/5/3 8/9/3
f 3/4/2 4/5/2 12/5/2 11/4/2
f 6/11/4 5/12/4 1/1/4 2/10/4
f 10/10/5 9/1/5 11/4/5 12/5/5
f 2/10/4 1/1/4 9/1/4 10/10/4
f 4/5/3 2/10/3 10/10/3 12/5/3
f 1/1/1 3/4/1 11/4/1 9/1/1
f 14/13/6 15/14/6 16/12/6 13/11/6
f 7/3/1 5/2/1 16/2/1 15/3/1
f 5/12/4 6/11/4 13/11/4 16/12/4
f 8/7/2 7/6/2 15/6/2 14/7/2
